# xmcd CD database file
#
# Track frame offsets:
#	150
#	1142
#	19406
#	44963
#	65317
#	88669
#	110741
#	134683
#	154974
#	182723
#	204176
#	232442
#
# Disc length: 3354 seconds
#
# Revision: 0
# Processed by: cddbd v1.4PL0 Copyright (c) Steve Scherf et al.
# Submitted via: CDex 1.50beta9
#
DISCID=b00d180c
DTITLE=Honeybrowne - Live at The Fabulous Satellite Lounge
DYEAR=2002
DGENRE=Country
TTITLE0=Intro
TTITLE1=Breaking Away
TTITLE2=Tired Of This Town
TTITLE3=Fall Into You
TTITLE4=For So Long
TTITLE5=Annie In The Moonlight
TTITLE6=Texas Angel
TTITLE7=Deeper Shade Of Blue
TTITLE8=Hey Hey
TTITLE9=Hearts On Fire
TTITLE10=Parkwood
TTITLE11=Who Do You Think I Am
EXTD=YEAR: 2002
EXTT0=
EXTT1=
EXTT2=
EXTT3=
EXTT4=
EXTT5=
EXTT6=
EXTT7=
EXTT8=
EXTT9=
EXTT10=
EXTT11=
PLAYORDER=
